<?xml version="1.0" encoding="utf-8"?>
<!-- Generator: Adobe Illustrator 18.0.0, SVG Export Plug-In . SVG Version: 6.00 Build 0)  -->
<!DOCTYPE svg PUBLIC "-//W3C//DTD SVG 1.1//EN" "http://www.w3.org/Graphics/SVG/1.1/DTD/svg11.dtd">
<svg version="1.1" xmlns="http://www.w3.org/2000/svg" xmlns:xlink="http://www.w3.org/1999/xlink" x="0px" y="0px"
	 viewBox="0 0 128 128" enable-background="new 0 0 128 128" xml:space="preserve">
<g id="Layer_1">
</g>
<g id="Layer_2">
	<g>
		<circle fill="#FF6097" cx="64" cy="64" r="64"/>
		<g>
			<defs>
				<circle id="SVGID_97_" cx="64" cy="64" r="64"/>
			</defs>
			<clipPath id="SVGID_2_">
				<use xlink:href="#SVGID_97_"  overflow="visible"/>
			</clipPath>
			<polygon clip-path="url(#SVGID_2_)" fill="#EA4C8C" points="19.595,97.469 50.079,128 128,128 128,54.388 101,27.362 
				35.36,70.024 			"/>
		</g>
		<g>
			<path fill="#CED7DD" d="M74.736,87l3.292-0.277c0,0-2.643-0.151-3.175-2.595c-0.001-0.005-0.003-0.007-0.004-0.012L71.77,70
				h-11.6L57,83.986v0.003c-1,2.444-3.13,2.733-3.13,2.733L57.206,87h1.554h14.421H74.736z"/>
			<path fill="#EBEDED" d="M81,87.237C81,87.658,80.658,88,80.237,88H51.763C51.342,88,51,87.658,51,87.237v-0.474
				C51,86.342,51.342,86,51.763,86h28.474C80.658,86,81,86.342,81,86.763V87.237z"/>
			<path fill="#EBEDED" d="M30,72v2c0,2.209,1.791,4,4,4h64c2.209,0,4-1.791,4-4v-2H30z"/>
			<path fill="#333333" d="M102,72V30.004c0-2.212-1.791-4.004-4-4.004H34c-2.209,0-4,1.793-4,4.004V72H102z"/>
			<path fill="#A371C6" d="M98,67c0,0.552-0.448,1-1,1H35c-0.552,0-1-0.448-1-1V31c0-0.552,0.448-1,1-1h62c0.552,0,1,0.448,1,1V67z"
				/>
			<circle fill="#2BBCED" cx="66" cy="28" r="0.638"/>
			<circle fill="#333333" cx="66" cy="75" r="1"/>
		</g>
		<rect x="37" y="33" fill="#CFC5FF" width="58" height="8"/>
		<rect x="37" y="44" fill="#CFC5FF" width="18" height="21"/>
		<rect x="57" y="44" fill="#CFC5FF" width="18" height="21"/>
		<rect x="77" y="44" fill="#CFC5FF" width="18" height="21"/>
		<polygon opacity="0.24" fill="#4C527B" points="46,58.585 55.813,68 46,68 		"/>
		<polygon fill="#242423" points="59.787,72 45.844,72 45,68 55.78,68 		"/>
		<polygon opacity="0.35" fill="#CED7DD" points="65.908,77.998 46,78 46,72 59.787,72 		"/>
		<g>
			<path fill="#EBEEEF" d="M108,96c0,1.105-0.895,2-2,2H86c-1.105,0-2-0.895-2-2V86c0-1.105,0.895-2,2-2h20c1.105,0,2,0.895,2,2V96z
				"/>
			<path fill="#A371C6" d="M107,96c0,0.552-0.448,1-1,1H88c-0.552,0-1-0.448-1-1V86c0-0.552,0.448-1,1-1h18c0.552,0,1,0.448,1,1V96z
				"/>
			<circle fill="#333333" cx="85.5" cy="91" r="0.5"/>
		</g>
		<g>
			<path fill="#EBEEEF" d="M47,96c0,1.105-0.895,2-2,2H21c-1.105,0-2-0.895-2-2V60c0-1.105,0.895-2,2-2h24c1.105,0,2,0.895,2,2V96z"
				/>
			<path fill="#A371C6" d="M45,93c0,0.552-0.448,1-1,1H22c-0.552,0-1-0.448-1-1V61c0-0.552,0.448-1,1-1h22c0.552,0,1,0.448,1,1V93z"
				/>
			<path fill="#333333" d="M34,96c0,0.552-0.448,1-1,1h0c-0.552,0-1-0.448-1-1l0,0c0-0.552,0.448-1,1-1h0C33.552,95,34,95.448,34,96
				L34,96z"/>
		</g>
		<rect x="23" y="62" fill="#CFC5FF" width="20" height="4"/>
		<rect x="88" y="86" fill="#CFC5FF" width="18" height="2"/>
		<rect x="88" y="89" fill="#CFC5FF" width="18" height="7"/>
		<rect x="23" y="68" fill="#CFC5FF" width="9" height="11"/>
		<rect x="34" y="68" fill="#CFC5FF" width="9" height="11"/>
		<rect x="23" y="81" fill="#CFC5FF" width="9" height="11"/>
		<rect x="34" y="81" fill="#CFC5FF" width="9" height="11"/>
	</g>
</g>
</svg>
