<?xml version="1.0" encoding="utf-8"?>
<!-- Generator: Adobe Illustrator 18.0.0, SVG Export Plug-In . SVG Version: 6.00 Build 0)  -->
<!DOCTYPE svg PUBLIC "-//W3C//DTD SVG 1.1//EN" "http://www.w3.org/Graphics/SVG/1.1/DTD/svg11.dtd">
<svg version="1.1" id="Layer_1" xmlns="http://www.w3.org/2000/svg" xmlns:xlink="http://www.w3.org/1999/xlink" x="0px" y="0px"
	 width="128px" height="128px" viewBox="0 0 128 128" style="enable-background:new 0 0 128 128;" xml:space="preserve">
<style type="text/css">
	.st0{fill:#16B9BA;}
	.st1{clip-path:url(#SVGID_2_);fill:#00A0AC;}
	.st2{fill:#9BE2A4;}
	.st3{fill:#72BE8B;}
	.st4{fill:#FFCD00;}
	.st5{opacity:0.41;fill:#F08100;}
	.st6{opacity:0.58;}
	.st7{fill:none;stroke:#FFFFFF;stroke-linecap:round;stroke-linejoin:round;}
	.st8{fill:none;stroke:#FFFFFF;stroke-linecap:round;stroke-linejoin:round;stroke-dasharray:1.9515,2.9272;}
	.st9{fill:none;stroke:#FFFFFF;stroke-linecap:round;stroke-linejoin:round;stroke-dasharray:1.8418,2.7627;}
	.st10{fill:#F2F2F2;}
</style>
<g>
	<circle class="st0" cx="64" cy="64" r="64"/>
	<g>
		<defs>
			<circle id="SVGID_1_" cx="64" cy="64" r="64"/>
		</defs>
		<clipPath id="SVGID_2_">
			<use xlink:href="#SVGID_1_"  style="overflow:visible;"/>
		</clipPath>
		<polygon class="st1" points="13.2,79.4 61.8,128 128,128 128,76.6 86.5,35.2 41.7,36.7 50.6,45.6 27.6,56.1 40.7,69.2 		"/>
	</g>
	<path class="st2" d="M61.3,103.7L13.9,80c-1.5-0.7-1.5-2.8,0-3.6l50.1-25l50.1,25c1.5,0.7,1.5,2.8,0,3.6l-47.4,23.7
		C65,104.5,63,104.5,61.3,103.7z"/>
	<path class="st3" d="M62.2,96.8L26.7,79.1c-0.7-0.4-0.7-1.4,0-1.8L64,58.6l37.3,18.7c0.7,0.4,0.7,1.4,0,1.8L65.8,96.8
		C64.7,97.4,63.3,97.4,62.2,96.8z"/>
	<path class="st4" d="M61.3,73.3L28.5,56.9c-1.5-0.7-1.5-2.8,0-3.6L64,35.6l35.5,17.8c1.5,0.7,1.5,2.8,0,3.6L66.7,73.3
		C65,74.2,63,74.2,61.3,73.3z"/>
	<path class="st5" d="M62.2,66.8L40.7,56c-0.7-0.4-0.7-1.4,0-1.8L64,42.6l23.3,11.7c0.7,0.4,0.7,1.4,0,1.8L65.8,66.8
		C64.7,67.3,63.3,67.3,62.2,66.8z"/>
	<g class="st6">
		<g>
			<line class="st7" x1="42.3" y1="35.6" x2="42.3" y2="36.6"/>
			<line class="st8" x1="42.3" y1="39.5" x2="42.3" y2="52.7"/>
			<line class="st7" x1="42.3" y1="54.1" x2="42.3" y2="55.1"/>
		</g>
	</g>
	<g class="st6">
		<g>
			<line class="st7" x1="28.2" y1="54.8" x2="28.2" y2="55.8"/>
			<line class="st9" x1="28.2" y1="58.5" x2="28.2" y2="75.6"/>
			<line class="st7" x1="28.2" y1="76.9" x2="28.2" y2="77.9"/>
		</g>
	</g>
	<g class="st6">
		<g>
			<line class="st7" x1="99.7" y1="54.8" x2="99.7" y2="55.8"/>
			<line class="st9" x1="99.7" y1="58.5" x2="99.7" y2="75.6"/>
			<line class="st7" x1="99.7" y1="76.9" x2="99.7" y2="77.9"/>
		</g>
	</g>
	<g class="st6">
		<g>
			<line class="st7" x1="64" y1="72.4" x2="64" y2="73.4"/>
			<line class="st9" x1="64" y1="76.1" x2="64" y2="93.2"/>
			<line class="st7" x1="64" y1="94.6" x2="64" y2="95.6"/>
		</g>
	</g>
	<g class="st6">
		<g>
			<line class="st7" x1="85.7" y1="35.6" x2="85.7" y2="36.6"/>
			<line class="st8" x1="85.7" y1="39.5" x2="85.7" y2="52.7"/>
			<line class="st7" x1="85.7" y1="54.1" x2="85.7" y2="55.1"/>
		</g>
	</g>
	<g class="st6">
		<g>
			<line class="st7" x1="64" y1="45.6" x2="64" y2="46.6"/>
			<line class="st8" x1="64" y1="49.5" x2="64" y2="62.7"/>
			<line class="st7" x1="64" y1="64.1" x2="64" y2="65.1"/>
		</g>
	</g>
	<path class="st10" d="M61.3,46.8l-18.9-9.4c-1.5-0.7-1.5-2.8,0-3.6l18.9-9.4c1.7-0.8,3.7-0.8,5.4,0l18.9,9.4c1.5,0.7,1.5,2.8,0,3.6
		l-18.9,9.4C65,47.6,63,47.6,61.3,46.8z"/>
</g>
</svg>
