<?xml version="1.0" encoding="utf-8"?>
<!-- Generator: Adobe Illustrator 18.0.0, SVG Export Plug-In . SVG Version: 6.00 Build 0)  -->
<!DOCTYPE svg PUBLIC "-//W3C//DTD SVG 1.1//EN" "http://www.w3.org/Graphics/SVG/1.1/DTD/svg11.dtd">
<svg version="1.1" id="Layer_1" xmlns="http://www.w3.org/2000/svg" xmlns:xlink="http://www.w3.org/1999/xlink" x="0px" y="0px"
	 width="512px" height="512px" viewBox="0 0 512 512" enable-background="new 0 0 512 512" xml:space="preserve">
<g>
	<g>
		<g>
			<g>
				<g>
					<path fill="#4A555F" d="M66,121.8H37.9l-0.8-1.9c0,0-1.3-3.4-2.9-7.3c-3.9,1.7-7.2,3.1-7.2,3.1l-1.9,0.8L5.3,96.6l0.8-1.9
						c0,0,1.4-3.3,3.1-7.2c-4-1.5-7.3-2.9-7.3-2.9L0,83.9V55.8L1.9,55c0,0,3.4-1.3,7.3-2.9c-1.7-3.9-3.1-7.2-3.1-7.2l-0.8-1.9
						l19.9-19.9L27,24c0,0,3.3,1.4,7.2,3.1c1.5-3.9,2.9-7.3,2.9-7.3l0.8-1.9H66l0.8,1.9c0,0,1.3,3.4,2.9,7.3
						c3.9-1.7,7.2-3.1,7.2-3.1l1.9-0.8l19.9,19.9l-0.8,1.9c0,0-1.4,3.3-3.1,7.2c4,1.5,7.3,2.9,7.3,2.9l1.9,0.8v28.1l-1.9,0.8
						c0,0-3.4,1.3-7.3,2.9c1.7,3.9,3.1,7.2,3.1,7.2l0.8,1.9l-19.9,19.9l-1.9-0.8c0,0-3.3-1.4-7.2-3.1c-1.5,3.9-2.9,7.3-2.9,7.3
						L66,121.8z M42,115.8h20c0.8-2,2-5.2,3.3-8.3l1.1-2.9l2.9,1.3c3.1,1.4,6.2,2.7,8.2,3.6l14.1-14.1c-0.8-1.9-2.2-5.1-3.6-8.2
						l-1.3-2.9l2.9-1.1c3.1-1.2,6.4-2.5,8.3-3.3V59.9c-2-0.8-5.2-2-8.3-3.3l-2.9-1.1l1.3-2.9c1.4-3.1,2.7-6.3,3.6-8.2L77.4,30.3
						c-1.9,0.8-5.1,2.2-8.2,3.6l-2.9,1.3l-1.1-2.9c-1.2-3.1-2.5-6.4-3.3-8.3H42c-0.8,2-2,5.2-3.3,8.3l-1.1,2.9l-2.9-1.3
						c-3.1-1.4-6.2-2.7-8.2-3.6L12.4,44.4c0.8,1.9,2.2,5.1,3.6,8.2l1.3,2.9l-2.9,1.1C11.2,57.8,8,59.1,6,59.9v19.9
						c2,0.8,5.2,2,8.3,3.3l2.9,1.1L16,87.1c-1.4,3.1-2.7,6.3-3.6,8.2l14.1,14.1c1.9-0.8,5.1-2.2,8.2-3.6l2.9-1.3l1.1,2.9
						C39.9,110.6,41.2,113.8,42,115.8z M51.9,94.5c-13.6,0-24.7-11.1-24.7-24.7s11.1-24.7,24.7-24.7c13.6,0,24.7,11.1,24.7,24.7
						S65.5,94.5,51.9,94.5z M51.9,51.2c-10.3,0-18.7,8.4-18.7,18.7s8.4,18.7,18.7,18.7c10.3,0,18.7-8.4,18.7-18.7
						S62.2,51.2,51.9,51.2z"/>
				</g>
			</g>
			<g>
				<g>
					<path fill="#FFD552" d="M46.3,109.3c-0.5-1.3-3.9-9.9-3.9-9.9c3,1,6.2,1.5,9.5,1.5c3.3,0,6.5-0.5,9.5-1.5c0,0-3.3,8.6-3.9,9.9
						H46.3z M20,93.8c0.6-1.3,4.3-9.7,4.3-9.7c3,5.7,7.7,10.4,13.4,13.4c0,0-8.4,3.7-9.7,4.3L20,93.8z M66.2,97.5
						c5.7-3,10.4-7.7,13.4-13.4c0,0,3.7,8.4,4.3,9.7l-7.9,7.9C74.6,101.2,66.2,97.5,66.2,97.5z M81.5,79.3c1-3,1.5-6.2,1.5-9.5
						c0-3.3-0.5-6.5-1.5-9.5c0,0,8.6,3.3,9.9,3.9v11.2C90.1,76,81.5,79.3,81.5,79.3z M12.4,75.4V64.2c1.3-0.5,9.9-3.9,9.9-3.9
						c-1,3-1.5,6.2-1.5,9.5c0,3.3,0.5,6.5,1.5,9.5C22.3,79.3,13.8,76,12.4,75.4z M79.6,55.6c-3-5.7-7.7-10.4-13.4-13.4
						c0,0,8.4-3.7,9.8-4.3l7.9,7.9C83.3,47.2,79.6,55.6,79.6,55.6z M20,45.9l7.9-7.9c1.3,0.6,9.7,4.3,9.7,4.3
						c-5.7,3-10.4,7.7-13.4,13.4C24.3,55.6,20.6,47.2,20,45.9z M61.4,40.2c-3-1-6.2-1.5-9.5-1.5c-3.3,0-6.5,0.5-9.5,1.5
						c0,0,3.3-8.6,3.9-9.9h11.2C58.1,31.7,61.4,40.2,61.4,40.2z"/>
				</g>
			</g>
		</g>
		<g>
			<g>
				<g>
					<path fill="#4A555F" d="M474.1,121.8H446l-0.8-1.9c0,0-1.3-3.4-2.9-7.3c-3.9,1.7-7.2,3.1-7.2,3.1l-1.9,0.8l-19.9-19.9l0.8-1.9
						c0,0,1.4-3.3,3.1-7.2c-4-1.5-7.3-2.9-7.3-2.9l-1.9-0.8V55.8L410,55c0,0,3.4-1.3,7.3-2.9c-1.7-3.9-3.1-7.2-3.1-7.2l-0.8-1.9
						l19.9-19.9l1.9,0.8c0,0,3.3,1.4,7.2,3.1c1.5-3.9,2.9-7.3,2.9-7.3l0.8-1.9h28.1l0.8,1.9c0,0,1.3,3.4,2.9,7.3
						c3.9-1.7,7.2-3.1,7.2-3.1l1.9-0.8l19.9,19.9l-0.8,1.9c0,0-1.4,3.3-3.1,7.2c4,1.5,7.3,2.9,7.3,2.9l1.9,0.8v28.1l-1.9,0.8
						c0,0-3.4,1.3-7.3,2.9c1.7,3.9,3.1,7.2,3.1,7.2l0.8,1.9l-19.9,19.9l-1.9-0.8c0,0-3.3-1.4-7.2-3.1c-1.5,3.9-2.9,7.3-2.9,7.3
						L474.1,121.8z M450.1,115.8h20c0.8-2,2-5.2,3.3-8.3l1.1-2.9l2.9,1.3c3.1,1.4,6.2,2.7,8.2,3.6l14.1-14.1
						c-0.8-1.9-2.2-5.1-3.6-8.2l-1.3-2.9l2.9-1.1c3.1-1.2,6.4-2.5,8.3-3.3V59.9c-2-0.8-5.2-2-8.3-3.3l-2.9-1.1l1.3-2.9
						c1.4-3.1,2.7-6.3,3.6-8.2l-14.1-14.1c-1.9,0.8-5.1,2.2-8.2,3.6l-2.9,1.3l-1.1-2.9c-1.2-3.1-2.5-6.4-3.3-8.3h-20
						c-0.8,2-2,5.2-3.3,8.3l-1.1,2.9l-2.9-1.3c-3.1-1.4-6.2-2.7-8.2-3.6l-14.1,14.1c0.8,1.9,2.2,5.1,3.6,8.2l1.3,2.9l-2.9,1.1
						c-3.1,1.2-6.4,2.5-8.3,3.3v19.9c2,0.8,5.2,2,8.3,3.3l2.9,1.1l-1.3,2.9c-1.4,3.1-2.7,6.3-3.6,8.2l14.1,14.1
						c1.9-0.8,5.1-2.2,8.2-3.6l2.9-1.3l1.1,2.9C448.1,110.6,449.3,113.8,450.1,115.8z M460.1,94.5c-13.6,0-24.7-11.1-24.7-24.7
						s11.1-24.7,24.7-24.7c13.6,0,24.7,11.1,24.7,24.7S473.7,94.5,460.1,94.5z M460.1,51.2c-10.3,0-18.7,8.4-18.7,18.7
						s8.4,18.7,18.7,18.7c10.3,0,18.7-8.4,18.7-18.7S470.4,51.2,460.1,51.2z"/>
				</g>
			</g>
			<g>
				<g>
					<path fill="#FFD552" d="M454.5,109.3c-0.5-1.3-3.9-9.9-3.9-9.9c3,1,6.2,1.5,9.5,1.5c3.3,0,6.5-0.5,9.5-1.5c0,0-3.3,8.6-3.9,9.9
						H454.5z M428.2,93.8c0.6-1.3,4.3-9.7,4.3-9.7c3,5.7,7.7,10.4,13.4,13.4c0,0-8.4,3.7-9.7,4.3L428.2,93.8z M474.3,97.5
						c5.7-3,10.4-7.7,13.4-13.4c0,0,3.7,8.4,4.3,9.7l-7.9,7.9C482.7,101.2,474.3,97.5,474.3,97.5z M489.7,79.3c1-3,1.5-6.2,1.5-9.5
						c0-3.3-0.5-6.5-1.5-9.5c0,0,8.6,3.3,9.9,3.9v11.2C498.2,76,489.7,79.3,489.7,79.3z M420.6,75.4V64.2c1.3-0.5,9.9-3.9,9.9-3.9
						c-1,3-1.5,6.2-1.5,9.5c0,3.3,0.5,6.5,1.5,9.5C430.5,79.3,421.9,76,420.6,75.4z M487.7,55.6c-3-5.7-7.7-10.4-13.4-13.4
						c0,0,8.4-3.7,9.8-4.3l7.9,7.9C491.4,47.2,487.7,55.6,487.7,55.6z M428.2,45.9l7.9-7.9c1.3,0.6,9.7,4.3,9.7,4.3
						c-5.7,3-10.4,7.7-13.4,13.4C432.4,55.6,428.7,47.2,428.2,45.9z M469.6,40.2c-3-1-6.2-1.5-9.5-1.5c-3.3,0-6.5,0.5-9.5,1.5
						c0,0,3.3-8.6,3.9-9.9h11.2C466.2,31.7,469.6,40.2,469.6,40.2z"/>
				</g>
			</g>
		</g>
	</g>
	<g>
		<g>
			<g>
				<path fill="#71CDE1" d="M273.8,292.4v139.1c-15.3,8.4-19,24.1-19,24.1s-3.7-16.2-19.7-24.5V292.1c15.9,8.3,19.7,24.5,19.7,24.5
					S258.5,300.8,273.8,292.4z"/>
			</g>
		</g>
		<g>
			<g>
				<path fill="#F68F6F" d="M406.8,444.1v29.2h-152c0.5-3.9,1.5-7.5,3-10.8c4.4-9.9,12.7-16.9,22.4-18.2l1-0.1H406.8z"/>
			</g>
		</g>
		<g>
			<g>
				<path fill="#F68F6F" d="M252.9,473.3h-152v-29.2h125.5l1.1,0.1c11.5,1.6,20.9,11,24.4,23.7C252.3,469.7,252.7,471.4,252.9,473.3
					z"/>
			</g>
		</g>
		<g>
			<g>
				<path fill="#4A555F" d="M254.5,76.7c-27.6,0-50,22.4-50,50c0,27.5,22.4,50,50,50c27.6,0,50-22.4,50-50
					C304.5,99.1,282,76.7,254.5,76.7z M254.5,170.7c-24.2,0-44-19.7-44-44s19.7-44,44-44c24.2,0,44,19.7,44,44
					S278.7,170.7,254.5,170.7z M254.5,76.7c-27.6,0-50,22.4-50,50c0,27.5,22.4,50,50,50c27.6,0,50-22.4,50-50
					C304.5,99.1,282,76.7,254.5,76.7z M254.5,170.7c-24.2,0-44-19.7-44-44s19.7-44,44-44c24.2,0,44,19.7,44,44
					S278.7,170.7,254.5,170.7z M254.5,76.7c-27.6,0-50,22.4-50,50c0,27.5,22.4,50,50,50c27.6,0,50-22.4,50-50
					C304.5,99.1,282,76.7,254.5,76.7z M254.5,170.7c-24.2,0-44-19.7-44-44s19.7-44,44-44c24.2,0,44,19.7,44,44
					S278.7,170.7,254.5,170.7z M254.5,76.7c-27.6,0-50,22.4-50,50c0,27.5,22.4,50,50,50c27.6,0,50-22.4,50-50
					C304.5,99.1,282,76.7,254.5,76.7z M254.5,170.7c-24.2,0-44-19.7-44-44s19.7-44,44-44c24.2,0,44,19.7,44,44
					S278.7,170.7,254.5,170.7z M361.7,97.8c0,0-9.4-3.7-19.3-7.6c4.3-9.8,8.3-19,8.3-19l0.8-1.9l-39.7-39.7l-1.9,0.8
					c0,0-9.2,4-19,8.3c-3.9-9.9-7.6-19.3-7.6-19.3l-0.7-1.9h-56.2l-0.8,1.9c0,0-3.7,9.4-7.6,19.3c-9.8-4.3-19-8.3-19-8.3l-1.9-0.8
					l-39.7,39.7l0.8,1.9c0,0,4,9.2,8.3,19c-9.9,3.9-19.3,7.6-19.3,7.6l-1.9,0.8v56.2l1.9,0.7c0,0,9.4,3.7,19.3,7.6
					c-4.3,9.8-8.3,19-8.3,19l-0.8,1.9l39.7,39.7l1.9-0.8c0,0,9.2-4,19-8.3c3.9,9.9,7.6,19.3,7.6,19.3l0.8,1.9h56.2l0.7-1.9
					c0,0,3.7-9.4,7.6-19.3c9.8,4.3,19,8.3,19,8.3l1.9,0.8l39.7-39.7l-0.8-1.9c0,0-4-9.3-8.3-19c9.9-3.9,19.3-7.6,19.3-7.6l1.9-0.7
					V98.6L361.7,97.8z M357.6,150.7c-3.7,1.4-12.1,4.8-20.3,8l-2.9,1.1l1.3,2.9c3.5,8.1,7.1,16.4,8.7,19.9l-34,34
					c-3.6-1.6-11.9-5.2-19.9-8.7l-2.9-1.3l-1.1,2.9c-3.2,8.2-6.5,16.6-8,20.3h-48c-1.5-3.7-4.8-12.1-8-20.3l-1.1-2.9l-2.9,1.3
					c-8.1,3.5-16.3,7.1-19.9,8.7l-34-34c1.6-3.6,5.2-11.9,8.7-19.9l1.3-2.9l-2.9-1.1c-8.2-3.2-16.6-6.5-20.3-8v-48
					c3.7-1.4,12.1-4.8,20.3-8l2.9-1.1l-1.3-2.9c-3.5-8.1-7.1-16.4-8.7-20l34-34c3.6,1.6,11.9,5.2,19.9,8.7l2.9,1.3l1.1-2.9
					c3.2-8.2,6.5-16.6,8-20.2h48c1.4,3.7,4.8,12.1,8,20.2l1.1,2.9l2.9-1.3c8.1-3.5,16.3-7.1,19.9-8.7l34,34
					c-1.6,3.6-5.2,11.9-8.7,20l-1.3,2.9l2.9,1.1c8.2,3.2,16.6,6.5,20.3,8V150.7z M254.5,76.7c-27.6,0-50,22.4-50,50
					c0,27.5,22.4,50,50,50c27.6,0,50-22.4,50-50C304.5,99.1,282,76.7,254.5,76.7z M254.5,170.7c-24.2,0-44-19.7-44-44s19.7-44,44-44
					c24.2,0,44,19.7,44,44S278.7,170.7,254.5,170.7z M254.5,76.7c-27.6,0-50,22.4-50,50c0,27.5,22.4,50,50,50c27.6,0,50-22.4,50-50
					C304.5,99.1,282,76.7,254.5,76.7z M254.5,170.7c-24.2,0-44-19.7-44-44s19.7-44,44-44c24.2,0,44,19.7,44,44
					S278.7,170.7,254.5,170.7z M254.5,76.7c-27.6,0-50,22.4-50,50c0,27.5,22.4,50,50,50c27.6,0,50-22.4,50-50
					C304.5,99.1,282,76.7,254.5,76.7z M254.5,170.7c-24.2,0-44-19.7-44-44s19.7-44,44-44c24.2,0,44,19.7,44,44
					S278.7,170.7,254.5,170.7z M254.5,76.7c-27.6,0-50,22.4-50,50c0,27.5,22.4,50,50,50c27.6,0,50-22.4,50-50
					C304.5,99.1,282,76.7,254.5,76.7z M254.5,170.7c-24.2,0-44-19.7-44-44s19.7-44,44-44c24.2,0,44,19.7,44,44
					S278.7,170.7,254.5,170.7z M254.5,76.7c-27.6,0-50,22.4-50,50c0,27.5,22.4,50,50,50c27.6,0,50-22.4,50-50
					C304.5,99.1,282,76.7,254.5,76.7z M254.5,170.7c-24.2,0-44-19.7-44-44s19.7-44,44-44c24.2,0,44,19.7,44,44
					S278.7,170.7,254.5,170.7z"/>
			</g>
		</g>
		<g>
			<g>
				<path fill="#F68F6F" d="M351.2,146.3V107c-4.3-1.7-10.3-4-16.2-6.4l-9.2-3.6l3.9-9c2.6-5.8,5.1-11.7,7-15.9l-7.5-7.6L309,44.4
					c-4.2,1.8-10.1,4.4-15.9,6.9l-9,4l-3.6-9.2c-2.3-5.9-4.7-11.9-6.3-16.2h-39.3c-1.7,4.3-4,10.3-6.4,16.2l-3.6,9.2l-9-4
					c-5.8-2.5-11.7-5.1-15.9-6.9l-27.8,27.8c1.8,4.2,4.4,10.1,7,15.9l4,9l-9.2,3.6c-5.9,2.3-11.9,4.7-16.2,6.4v39.3
					c4.3,1.7,10.3,4.1,16.2,6.4l9.2,3.6l-4,9c-2.5,5.8-5.1,11.7-7,15.9L200,209c4.2-1.8,10.1-4.4,15.9-7l9-3.9l3.6,9.1
					c2.3,5.9,4.7,11.9,6.4,16.2h39.3c1.7-4.3,4-10.3,6.3-16.2l3.6-9.1l9,3.9c5.8,2.6,11.7,5.1,15.9,7l27.8-27.8
					c-1.8-4.2-4.4-10.1-7-15.9l-3.9-9l9.2-3.6C340.9,150.4,346.9,148,351.2,146.3z M254.5,183.1c-31.1,0-56.4-25.3-56.4-56.4
					c0-31.1,25.3-56.4,56.4-56.4c31.1,0,56.4,25.3,56.4,56.4C310.9,157.8,285.6,183.1,254.5,183.1z"/>
			</g>
		</g>
		<g>
			<g>
				<rect x="128.5" y="296.4" fill="#4A555F" width="90.8" height="6"/>
			</g>
		</g>
		<g>
			<g>
				<rect x="128.5" y="327.9" fill="#4A555F" width="90.8" height="6"/>
			</g>
		</g>
		<g>
			<g>
				<rect x="128.5" y="353.9" fill="#4A555F" width="90.8" height="6"/>
			</g>
		</g>
		<g>
			<g>
				<rect x="128.5" y="380" fill="#4A555F" width="90.8" height="6"/>
			</g>
		</g>
		<g>
			<g>
				<rect x="128.5" y="406" fill="#4A555F" width="90.8" height="6"/>
			</g>
		</g>
		<g>
			<g>
				<rect x="290.8" y="296.4" fill="#4A555F" width="90.8" height="6"/>
			</g>
		</g>
		<g>
			<g>
				<rect x="290.8" y="327.9" fill="#4A555F" width="90.8" height="6"/>
			</g>
		</g>
		<g>
			<g>
				<rect x="290.8" y="353.9" fill="#4A555F" width="90.8" height="6"/>
			</g>
		</g>
		<g>
			<g>
				<rect x="290.8" y="380" fill="#4A555F" width="90.8" height="6"/>
			</g>
		</g>
		<g>
			<g>
				<rect x="290.8" y="406" fill="#4A555F" width="90.8" height="6"/>
			</g>
		</g>
		<path fill="#4A555F" d="M416.8,287.3v-19.4H295.4c-18.6,0-29.5,8.6-35.3,15.7c-2.3,2.9-4,5.7-5.3,8.2c-1.2-2.5-3-5.4-5.3-8.2
			c-5.8-7.2-16.6-15.7-35.3-15.7H92.8v19.4H75.8v207.1h172h4h1.2h1.8h1.8h1.2h9.5h166.5V287.3H416.8z M295.4,273.9h115.5v167.1
			H295.4c-18.6,0-29.5,8.6-35.3,15.7c-0.8,1-1.6,2.1-2.3,3.1V300.5C258.6,297.6,266.1,273.9,295.4,273.9z M98.8,273.9h115.5
			c29.5,0,36.7,23.5,37.6,26.6v159.3c-0.7-1-1.4-2-2.3-3.1c-5.8-7.2-16.6-15.7-35.3-15.7H98.8V273.9z M427.8,488.4H267.3h-9.5h-2.6
			h-0.4h-0.4h-2.6h-4h-166V293.3h11v153.7h121.5c28.5,0,36.2,21.9,37.5,26.2c0,0.2,0.1,0.3,0.1,0.4v-0.4h6v0.4
			c0-0.1,0.1-0.2,0.1-0.4c1.3-4.2,9.2-26.2,37.4-26.2h121.5V293.3h11V488.4z"/>
		<g>
			<g>
				<path fill="#4A555F" d="M445.9,253.7c-0.7,1.8-1.4,3.6-2.2,5.4l5.5,2.4c0.8-1.9,1.6-3.8,2.3-5.7L445.9,253.7z M449.4,242.6
					c-0.5,1.9-1,3.8-1.6,5.6l5.7,1.8c0.6-2,1.2-4,1.7-5.9L449.4,242.6z M451.5,231.1c-0.3,1.9-0.6,3.9-0.9,5.8l5.9,1.1
					c0.4-2,0.7-4.1,1-6.1L451.5,231.1z M452.4,219.5c0,1.9-0.1,3.9-0.3,5.8l6,0.4c0.2-2,0.3-4.1,0.3-6.2L452.4,219.5z M457.9,207.3
					l-6,0.6c0.2,1.9,0.3,3.9,0.4,5.8l6-0.2C458.2,211.4,458.1,209.4,457.9,207.3z M456,195.1l-5.9,1.3c0.4,1.9,0.8,3.8,1.1,5.7
					l5.9-0.9C456.8,199.2,456.4,197.1,456,195.1z M452.6,183.2l-5.7,1.9c0.6,1.8,1.2,3.7,1.7,5.6l5.8-1.6
					C453.9,187.2,453.3,185.2,452.6,183.2z M448,171.8l-5.4,2.6c0.8,1.7,1.6,3.5,2.4,5.3l5.6-2.3C449.7,175.6,448.9,173.7,448,171.8
					z M442.1,161l-5.1,3.2c1,1.6,2,3.3,2.9,5l5.3-2.9C444.2,164.5,443.1,162.7,442.1,161z M434.9,151l-4.7,3.7
					c1.2,1.5,2.4,3.1,3.5,4.7l4.9-3.5C437.5,154.2,436.2,152.6,434.9,151z M426.7,141.8l-4.2,4.2c1.4,1.4,2.7,2.8,4,4.2l4.5-4
					C429.6,144.7,428.1,143.2,426.7,141.8z M417.5,133.6l-3.7,4.7c1.5,1.2,3,2.5,4.5,3.7l4-4.5C420.7,136.2,419.1,134.9,417.5,133.6
					z M407.4,126.5l-3.2,5.1c1.6,1,3.3,2.1,4.9,3.2l3.4-4.9C410.8,128.7,409.1,127.6,407.4,126.5z M396.5,120.7l-2.6,5.4
					c1.8,0.8,3.5,1.7,5.2,2.6l2.9-5.3C400.2,122.5,398.4,121.5,396.5,120.7z M389.6,117.8L389.6,117.8c-1.5-0.6-3-1.1-4.5-1.6
					l-1.9,5.7c1.8,0.6,3.7,1.3,5.5,2l0.6-1.4l1.7-4.1C390.5,118.1,390,117.9,389.6,117.8z"/>
			</g>
		</g>
		<g>
			<g>
				<polygon fill="#4A555F" points="391.6,140.5 378.3,114 405.8,108.1 407.1,114 387.2,118.3 397,137.8 				"/>
			</g>
		</g>
		<g>
			<g>
				<path fill="#4A555F" d="M66.1,253.7l-0.5,0.2l-3.8,1.4h0l-1.2,0.5c0.7,1.9,1.5,3.8,2.3,5.7l5.5-2.4
					C67.5,257.3,66.8,255.5,66.1,253.7z M62.6,242.6l-5.8,1.5c0.5,2,1.1,4,1.7,5.9l5.7-1.8C63.6,246.3,63.1,244.5,62.6,242.6z
					 M60.4,231.1l-6,0.8c0.3,2,0.6,4.1,1,6.1l5.9-1.1C61,235,60.7,233.1,60.4,231.1z M59.6,219.5l-6,0.1c0,2.1,0.1,4.1,0.3,6.2
					l6-0.4C59.7,223.4,59.6,221.5,59.6,219.5z M54.1,207.3c-0.2,2-0.3,4.1-0.4,6.2l6,0.2c0.1-1.9,0.2-3.9,0.4-5.8L54.1,207.3z
					 M56,195.1c-0.4,2-0.8,4.1-1.1,6.1l5.9,0.9c0.3-1.9,0.7-3.8,1.1-5.7L56,195.1z M59.3,183.2c-0.7,1.9-1.3,3.9-1.8,5.9l5.8,1.6
					c0.5-1.9,1.1-3.7,1.7-5.6L59.3,183.2z M63.9,171.8c-0.9,1.9-1.7,3.8-2.5,5.6l5.5,2.3c0.7-1.8,1.5-3.6,2.4-5.3L63.9,171.8z
					 M69.9,161c-1.1,1.7-2.1,3.5-3.1,5.3l5.3,2.9c0.9-1.7,1.9-3.4,3-5L69.9,161z M77,151c-1.3,1.6-2.5,3.3-3.7,4.9l4.9,3.5
					c1.1-1.6,2.3-3.1,3.5-4.7L77,151z M85.2,141.8c-1.5,1.4-2.9,2.9-4.2,4.5l4.5,4c1.3-1.4,2.6-2.9,4-4.2L85.2,141.8z M94.5,133.6
					c-1.6,1.3-3.2,2.6-4.7,4l4,4.5c1.5-1.3,3-2.5,4.5-3.7L94.5,133.6z M104.6,126.5c-1.7,1.1-3.5,2.2-5.2,3.4l3.4,4.9
					c1.6-1.1,3.2-2.2,4.9-3.2L104.6,126.5z M115.4,120.7c-1.9,0.9-3.7,1.8-5.5,2.8l2.8,5.3c1.7-0.9,3.5-1.8,5.2-2.6L115.4,120.7z
					 M126.8,116.1c-1.9,0.6-3.9,1.4-5.8,2.1l2.2,5.6c1.8-0.7,3.6-1.4,5.5-2L126.8,116.1z"/>
			</g>
		</g>
		<g>
			<g>
				<polygon fill="#4A555F" points="66.9,266 43.6,250.6 46.9,245.6 64.2,257 72.4,237.8 77.9,240.1 				"/>
			</g>
		</g>
	</g>
</g>
</svg>
