<?xml version="1.0" encoding="utf-8"?>
<!-- Generator: Adobe Illustrator 18.0.0, SVG Export Plug-In . SVG Version: 6.00 Build 0)  -->
<!DOCTYPE svg PUBLIC "-//W3C//DTD SVG 1.1//EN" "http://www.w3.org/Graphics/SVG/1.1/DTD/svg11.dtd">
<svg version="1.1" id="Layer_1" xmlns="http://www.w3.org/2000/svg" xmlns:xlink="http://www.w3.org/1999/xlink" x="0px" y="0px"
	 width="128px" height="128px" viewBox="0 0 128 128" style="enable-background:new 0 0 128 128;" xml:space="preserve">
<style type="text/css">
	.st0{fill:#F79D00;}
	.st1{opacity:0.84;clip-path:url(#SVGID_2_);}
	.st2{fill:#EE7209;}
	.st3{fill:#ECF0F1;}
	.st4{opacity:0.21;clip-path:url(#SVGID_4_);}
	.st5{fill:#526981;}
	.st6{fill:#2B3E53;}
	.st7{opacity:0.66;clip-path:url(#SVGID_6_);fill:#1C2A39;}
	.st8{fill:#1D6F99;}
	.st9{fill:#00CAF7;}
	.st10{fill:#C1DD00;}
	.st11{clip-path:url(#SVGID_8_);}
	.st12{opacity:0.3;fill:#008347;}
	.st13{fill:#4A4433;}
	.st14{fill:#41BFED;}
	.st15{fill:#F4C600;}
	.st16{fill:#FF6097;}
</style>
<g>
	<circle class="st0" cx="64" cy="64" r="64"/>
	<g>
		<defs>
			<circle id="SVGID_1_" cx="64" cy="64" r="64"/>
		</defs>
		<clipPath id="SVGID_2_">
			<use xlink:href="#SVGID_1_"  style="overflow:visible;"/>
		</clipPath>
		<g class="st1">
			<polygon class="st2" points="68.7,38.3 76.2,34.3 88.2,25.4 128,65 128,128 64,128 40.2,104.1 			"/>
		</g>
	</g>
	<path class="st3" d="M84.2,105.6H43.8c-2.9,0-5.2-2.3-5.2-5.2V28.8c0-2.9,2.3-5.2,5.2-5.2h40.4c2.9,0,5.2,2.3,5.2,5.2v71.5
		C89.4,103.2,87.1,105.6,84.2,105.6z"/>
	<g>
		<defs>
			<path id="SVGID_3_" d="M84.2,105.6H43.8c-2.9,0-5.2-2.3-5.2-5.2V28.8c0-2.9,2.3-5.2,5.2-5.2h40.4c2.9,0,5.2,2.3,5.2,5.2v71.5
				C89.4,103.2,87.1,105.6,84.2,105.6z"/>
		</defs>
		<clipPath id="SVGID_4_">
			<use xlink:href="#SVGID_3_"  style="overflow:visible;"/>
		</clipPath>
		<g class="st4">
			<path class="st5" d="M57.3,102.8l3.1,3.1h15.8l-5.4-5.4L57.3,102.8z"/>
		</g>
	</g>
	<path class="st6" d="M82.5,97.6h-37c-0.6,0-1-0.4-1-1V30.5c0-0.6,0.4-1,1-1h37c0.6,0,1,0.4,1,1v66.1C83.5,97.2,83.1,97.6,82.5,97.6
		z"/>
	<path class="st6" d="M69.9,103.1H58.1c-0.7,0-1.2-0.6-1.2-1.2v-0.5c0-0.7,0.6-1.2,1.2-1.2h11.8c0.7,0,1.2,0.6,1.2,1.2v0.5
		C71.1,102.5,70.6,103.1,69.9,103.1z"/>
	<g>
		<defs>
			<path id="SVGID_5_" d="M82.5,97.6h-37c-0.6,0-1-0.4-1-1V30.5c0-0.6,0.4-1,1-1h37c0.6,0,1,0.4,1,1v66.1
				C83.5,97.2,83.1,97.6,82.5,97.6z"/>
		</defs>
		<clipPath id="SVGID_6_">
			<use xlink:href="#SVGID_5_"  style="overflow:visible;"/>
		</clipPath>
		<polygon class="st7" points="56.1,54.8 68,66.7 50.7,70.5 54.1,73.9 50.7,76.9 53.5,79.7 50.8,83.5 57.1,90.7 53.7,94 58.3,98.5 
			85,98.5 85,52.7 71.5,39.1 		"/>
	</g>
	<path class="st8" d="M77,70.7H51.3c-0.5,0-0.8-0.4-0.8-0.8v-3c0-0.5,0.4-0.8,0.8-0.8H77c0.5,0,0.8,0.4,0.8,0.8v3
		C77.8,70.3,77.5,70.7,77,70.7z"/>
	<path class="st8" d="M77,77.2H51.3c-0.5,0-0.8-0.4-0.8-0.8v-3c0-0.5,0.4-0.8,0.8-0.8H77c0.5,0,0.8,0.4,0.8,0.8v3
		C77.8,76.8,77.5,77.2,77,77.2z"/>
	<path class="st9" d="M77,83.7H51.3c-0.5,0-0.8-0.4-0.8-0.8v-3c0-0.5,0.4-0.8,0.8-0.8H77c0.5,0,0.8,0.4,0.8,0.8v3
		C77.8,83.3,77.5,83.7,77,83.7z"/>
	<g>
		<circle class="st10" cx="64" cy="47.2" r="11"/>
		<g>
			<defs>
				<circle id="SVGID_7_" cx="64" cy="47.2" r="11"/>
			</defs>
			<clipPath id="SVGID_8_">
				<use xlink:href="#SVGID_7_"  style="overflow:visible;"/>
			</clipPath>
			<g class="st11">
				<polygon class="st12" points="66.7,41.5 75,50 75,58.2 63,58.2 57.6,52.8 59.9,50.5 63,50.2 65.3,42 				"/>
				<path class="st13" d="M69.2,50c-1.1-0.8-2.7-1-2.7-1l-0.7-0.8c0.7-0.5,1.2-1.3,1.4-2.2c0.3-0.6,0.5-1.2,0.5-1.9
					c0-2.1-1.6-3.7-3.6-3.8c-2,0-3.6,1.7-3.6,3.8c0,0.7,0.2,1.4,0.5,1.9c0.2,0.9,0.7,1.7,1.4,2.2L61.6,49c0,0-1.6,0.2-2.7,1
					c-1.1,0.8-1.3,1.8-1.3,2.5c0,0.6,0.7,0.4,0.7,0.4H64h5.7c0,0,0.7,0.2,0.7-0.4C70.5,51.8,70.3,50.8,69.2,50z"/>
			</g>
		</g>
	</g>
	<circle class="st14" cx="63.6" cy="92.3" r="2.4"/>
	<circle class="st15" cx="71.9" cy="92.3" r="2.4"/>
	<circle class="st16" cx="55.4" cy="92.3" r="2.4"/>
</g>
</svg>
