<?xml version="1.0" encoding="UTF-8"?>
<svg width="128px" height="128px" viewBox="0 0 128 128" version="1.1" xmlns="http://www.w3.org/2000/svg" xmlns:xlink="http://www.w3.org/1999/xlink">
    <!-- Generator: Sketch 52.6 (67491) - http://www.bohemiancoding.com/sketch -->
    <title>User</title>
    <desc>Created with Sketch.</desc>
    <defs>
        <circle id="path-1" cx="64" cy="64" r="64"></circle>
        <polygon id="path-3" points="8.5 0.9 0.9 23.9 6.5 23.9 10.5 23.9 16.1 23.9"></polygon>
        <path d="M20.8,46.7 L18.3,46.7 C8.2,46.7 0,41 0,30.9 L0,18.6 C0,8.5 8.2,0.3 18.3,0.3 L20.8,0.3 C30.9,0.3 39.1,8.5 39.1,18.6 L39.1,30.9 C39,41 30.8,46.7 20.8,46.7 Z" id="path-5"></path>
    </defs>
    <g id="Page-1" stroke="none" stroke-width="1" fill="none" fill-rule="evenodd">
        <g id="Artboard" transform="translate(-71.000000, -397.000000)">
            <g id="User" transform="translate(71.000000, 397.000000)">
                <g id="Path">
                    <mask id="mask-2" fill="white">
                        <use xlink:href="#path-1"></use>
                    </mask>
                    <use id="Mask" fill="#CE3838" xlink:href="#path-1"></use>
                    <polygon fill="#B83E3E" mask="url(#mask-2)" points="26.6 103.6 51 128 128 128 128 67.8 84.8 24.6 63 50.5 63 79"></polygon>
                </g>
                <path d="M93.1,44.7 C93.1,60.5 80.3,67.8 64.5,67.8 C48.7,67.8 35.9,60.5 35.9,44.7 C35.9,28.9 48.7,16.1 64.5,16.1 C80.3,16.1 93.1,28.9 93.1,44.7 Z" id="Path" fill="#584D51"></path>
                <path d="M99.5,104.9 L29.5,104.9 C27.4,104.9 25.7,103.2 25.7,101.1 L25.7,99.4 C25.7,87.3 35.5,77.5 47.6,77.5 L81.4,77.5 C93.5,77.5 103.3,87.3 103.3,99.4 L103.3,101.1 C103.3,103.2 101.6,104.9 99.5,104.9 Z" id="Path" fill="#EBEEEF"></path>
                <g id="Group" opacity="0.4" transform="translate(78.000000, 77.000000)" fill="#005B9F">
                    <path d="M3.4,0.5 L0.2,0.5 C12.3,0.5 22.1,10.3 22.1,22.4 L22.1,24.1 C22.1,26.2 20.4,27.9 18.3,27.9 L21.5,27.9 C23.6,27.9 25.3,26.2 25.3,24.1 L25.3,22.4 C25.3,10.3 15.5,0.5 3.4,0.5 Z" id="Path"></path>
                </g>
                <g id="Group" opacity="0.5" transform="translate(25.000000, 77.000000)" fill="#77D1F6">
                    <path d="M22.6,0.5 L25.8,0.5 C13.7,0.5 3.9,10.3 3.9,22.4 L3.9,24.1 C3.9,26.2 5.6,27.9 7.7,27.9 L4.5,27.9 C2.4,27.9 0.7,26.2 0.7,24.1 L0.7,22.4 C0.7,10.3 10.5,0.5 22.6,0.5 Z" id="Path"></path>
                </g>
                <rect id="Rectangle" fill="#915C2A" x="51.5" y="69.2" width="26.1" height="12.7"></rect>
                <g id="Path" transform="translate(56.000000, 81.000000)">
                    <mask id="mask-4" fill="white">
                        <use xlink:href="#path-3"></use>
                    </mask>
                    <use id="Mask" fill="#E09303" xlink:href="#path-3"></use>
                    <polygon fill="#BD7B01" mask="url(#mask-4)" points="5.7 9.2 15.8 19.3 13.4 10.2 8.6 6.4"></polygon>
                </g>
                <g id="Path" transform="translate(45.000000, 27.000000)">
                    <mask id="mask-6" fill="white">
                        <use xlink:href="#path-5"></use>
                    </mask>
                    <use id="Mask" fill="#915C2A" xlink:href="#path-5"></use>
                    <polygon fill="#743C10" opacity="0.121419271" mask="url(#mask-6)" points="-0.2 21.2 27.9 49.2 52.8 24.4 35.5 7 6 7 -0.9 21.4"></polygon>
                </g>
                <path d="M71.5,28.3 C77,31.6 80.7,37.6 80.7,44.5 L80.7,59 C80.7,65.9 77,69.7 71.5,73 C79.1,71.2 84,66 84,57.9 L84,45.6 C84,37.5 78.8,30.7 71.5,28.3 Z" id="Path" fill="#834F31"></path>
                <path d="M57.5,28.3 C52,31.6 48.3,37.6 48.3,44.5 L48.3,59 C48.3,65.9 52,69.7 57.5,73 C50,71.2 45,66 45,57.9 L45,45.6 C45,37.5 50.2,30.7 57.5,28.3 Z" id="Path" fill="#834F31"></path>
                <g id="Group" opacity="0.3" transform="translate(44.000000, 34.000000)"></g>
                <path d="M78.8,25.1 C75.7,20.9 72.3,23.6 69.5,20.2 C69.3,20.4 65.1,19.8 64.9,20 C63.1,21.8 62.1,23.4 61.6,25 C59.5,23.4 57.1,22.4 54.7,22 C54.6,21.9 54.6,21.8 54.5,21.7 C54.4,21.8 54.2,21.8 54.1,21.9 C54,21.9 54,21.9 53.9,21.9 C53.9,21.9 53.9,22 53.9,22 C49.6,23.7 43.3,27.4 42.2,34.5 C41.4,39.4 40.8,44.5 40.3,48.7 C40.6,48.7 50.2820171,37.5415332 50.5820171,37.5415332 C56.4820171,37.5415332 83.1550405,36.6 86.1550405,32 C88.7550405,35.5 83.5,31.5 78.8,25.1 Z" id="Path" fill="#584D51"></path>
                <path d="M64.4,81.9 L70.8,86.8 L66.7,91 C65.6,92.1 63.7,92.1 62.5,91 L58.3,86.8 L64.4,81.9 Z" id="Path" fill="#E09303"></path>
                <g id="Group" transform="translate(47.000000, 73.000000)" fill="#FFF1E5">
                    <path d="M17.5,8.9 L30.9,0 L35,4.5 L28.7,16.8 C28.1,18 26.5,18.2 25.6,17.3 L17.5,8.9 Z" id="Path"></path>
                    <path d="M17.5,8.9 L4.1,0 L0,4.4 L6.3,16.7 C6.9,17.9 8.5,18.1 9.4,17.2 L17.5,8.9 Z" id="Path"></path>
                </g>
            </g>
        </g>
    </g>
</svg>