<svg xmlns="http://www.w3.org/2000/svg" viewBox="0 0 173.68 45.116">
  <defs>
    <style>
      .cls-1 {
        fill: #fff;
      }
    </style>
  </defs>
  <g id="Logo" transform="translate(-14.24 -88.084)">
    <path id="Name" class="cls-1" d="M12,.2A9.343,9.343,0,0,1,7.02-1.16,9.361,9.361,0,0,1,3.52-5.1a13.58,13.58,0,0,1-1.28-6.1,24.745,24.745,0,0,1,2.6-11.26,20.394,20.394,0,0,1,7.68-8.32,22.752,22.752,0,0,1,12.2-3.14,29.9,29.9,0,0,1,3.94.28,21.552,21.552,0,0,1,3.82.84,1.481,1.481,0,0,1,1.12,1.6,2.984,2.984,0,0,1-.78,1.96,2.329,2.329,0,0,1-1.82.92,2.132,2.132,0,0,1-.48-.04q-2.08-.48-3.56-.7a21.22,21.22,0,0,0-3.12-.22,14.824,14.824,0,0,0-8.64,2.46,15.036,15.036,0,0,0-5.32,6.5A21.593,21.593,0,0,0,8.12-11.6,8.89,8.89,0,0,0,9.46-6.34a4.127,4.127,0,0,0,3.5,1.86,5.655,5.655,0,0,0,4.28-2,18.5,18.5,0,0,0,3.36-6.48,96.007,96.007,0,0,0,3-12.16,2.126,2.126,0,0,1,.96-1.52,3.953,3.953,0,0,1,1.92-.4q2.84,0,2.84,1.84a3.418,3.418,0,0,1-.12.8q-1.04,3.88-1.9,8.58a43.21,43.21,0,0,0-.86,7.14,5.911,5.911,0,0,0,.64,3.14,2.179,2.179,0,0,0,1.96.98,4.035,4.035,0,0,0,2.44-.86A19.36,19.36,0,0,0,34.4-8.36a1.4,1.4,0,0,1,1.08-.56.924.924,0,0,1,.82.48,2.481,2.481,0,0,1,.3,1.32,3.775,3.775,0,0,1-.76,2.48A18.156,18.156,0,0,1,32-1.04,8.172,8.172,0,0,1,27.4.2a6.324,6.324,0,0,1-4.52-1.62A7.6,7.6,0,0,1,20.72-6Q17.76.2,12,.2ZM48.52-8.92a.924.924,0,0,1,.82.48,2.481,2.481,0,0,1,.3,1.32,3.678,3.678,0,0,1-.76,2.48,17.233,17.233,0,0,1-3.74,3.48A8.012,8.012,0,0,1,40.56.2,5.554,5.554,0,0,1,35.34-3a17.6,17.6,0,0,1-1.7-8.28A56.872,56.872,0,0,1,34.9-22.4a37.731,37.731,0,0,1,3.72-10.72q2.46-4.48,5.86-4.48a3.393,3.393,0,0,1,3.02,1.78,9.757,9.757,0,0,1,1.1,5.1,29.132,29.132,0,0,1-2.64,11.04A61.14,61.14,0,0,1,38.8-7.24a4.642,4.642,0,0,0,.92,2.34,2.169,2.169,0,0,0,1.68.7,4.635,4.635,0,0,0,2.88-.94,21.947,21.947,0,0,0,3.16-3.22A1.4,1.4,0,0,1,48.52-8.92ZM43.6-33.64q-.92,0-2.08,3.32a54.561,54.561,0,0,0-2.04,8.24,59.649,59.649,0,0,0-.96,9.44,51.549,51.549,0,0,0,4.52-9.38,25.713,25.713,0,0,0,1.68-8.58Q44.72-33.64,43.6-33.64ZM64.24-8.92a.924.924,0,0,1,.82.48,2.481,2.481,0,0,1,.3,1.32,3.678,3.678,0,0,1-.76,2.48,14.613,14.613,0,0,1-4.18,3.32A11.6,11.6,0,0,1,54.64.2a8.906,8.906,0,0,1-6.52-2.28A8.35,8.35,0,0,1,45.8-8.32a11.575,11.575,0,0,1,1.16-5.14,9.5,9.5,0,0,1,3.22-3.78,8.1,8.1,0,0,1,4.66-1.4,5.069,5.069,0,0,1,3.72,1.38,5.013,5.013,0,0,1,1.4,3.74,6.467,6.467,0,0,1-1.98,4.74Q56-6.8,51.28-5.64q1,1.84,3.8,1.84a8.748,8.748,0,0,0,4.1-1.26,13.541,13.541,0,0,0,3.98-3.3A1.4,1.4,0,0,1,64.24-8.92Zm-10.08-5.8A2.931,2.931,0,0,0,51.66-13a8.017,8.017,0,0,0-1.02,4.16v.08a9.09,9.09,0,0,0,3.72-1.68,3.3,3.3,0,0,0,1.36-2.6,1.739,1.739,0,0,0-.42-1.22A1.467,1.467,0,0,0,54.16-14.72ZM85.2-8.92a.924.924,0,0,1,.82.48,2.481,2.481,0,0,1,.3,1.32,3.678,3.678,0,0,1-.76,2.48A18.043,18.043,0,0,1,81.7-1.18,8.44,8.44,0,0,1,76.96.2a8.253,8.253,0,0,1-3.62-.76,6.073,6.073,0,0,1-2.5-2.16A6.73,6.73,0,0,1,65.44.16a4.7,4.7,0,0,1-3.48-1.28,4.6,4.6,0,0,1-1.28-3.4,5.3,5.3,0,0,1,.92-3.24A3.047,3.047,0,0,1,64.2-9q1.44,0,1.44,1.08,0,.28-.08,1-.12,1.44-.12,1.64,0,1.2,1.04,1.2a1.919,1.919,0,0,0,1.46-.9A7.42,7.42,0,0,0,69.1-7.44a12.131,12.131,0,0,0,.46-3.44,7.069,7.069,0,0,0-.36-2.42q-.36-.98-.88-.98a.827.827,0,0,0-.64.22,2.438,2.438,0,0,0-.4.74,2.675,2.675,0,0,1-.64,1.02,2.023,2.023,0,0,1-1.4.38,1.733,1.733,0,0,1-1.4-.62,2.912,2.912,0,0,1-.52-1.9,4.168,4.168,0,0,1,1.24-3.2,4.5,4.5,0,0,1,3.2-1.16,5.773,5.773,0,0,1,3.04.82,5.275,5.275,0,0,1,2.08,2.38,8.27,8.27,0,0,1,2.7-2.4,6.222,6.222,0,0,1,2.94-.8,3.5,3.5,0,0,1,2.38.72,2.939,2.939,0,0,1,.82,2.32,5.04,5.04,0,0,1-.68,2.82,1.956,1.956,0,0,1-1.64,1.02,1.572,1.572,0,0,1-1.2-.36,2.361,2.361,0,0,1-.48-1.04,1.883,1.883,0,0,0-.24-.72.623.623,0,0,0-.56-.24q-.48,0-1.02.9A9.048,9.048,0,0,0,74.98-11a12.337,12.337,0,0,0-.38,3.08,4.244,4.244,0,0,0,.9,2.9A3.112,3.112,0,0,0,77.96-4,4.743,4.743,0,0,0,80.9-5.06a21.2,21.2,0,0,0,3.22-3.3A1.4,1.4,0,0,1,85.2-8.92ZM87.6.2a4.865,4.865,0,0,1-3.96-1.8,7.194,7.194,0,0,1-1.48-4.72,13,13,0,0,1,1.48-6.06,12.633,12.633,0,0,1,3.94-4.6,8.886,8.886,0,0,1,5.22-1.74,1.558,1.558,0,0,1,1.18.34,2.873,2.873,0,0,1,.5,1.22,9.392,9.392,0,0,1,1.76-.16q1.96,0,1.96,1.4a30.011,30.011,0,0,1-.6,4,38.823,38.823,0,0,0-.92,6.4,1.451,1.451,0,0,0,.3.96.967.967,0,0,0,.78.36,3.04,3.04,0,0,0,1.84-.98,34.217,34.217,0,0,0,2.92-3.18,1.4,1.4,0,0,1,1.08-.56.924.924,0,0,1,.82.48,2.481,2.481,0,0,1,.3,1.32,3.678,3.678,0,0,1-.76,2.48,20.15,20.15,0,0,1-3.48,3.44A5.933,5.933,0,0,1,96.92.2,3.736,3.736,0,0,1,94.5-.7a5.485,5.485,0,0,1-1.66-2.46Q90.76.2,87.6.2Zm1.44-4.04a2.2,2.2,0,0,0,1.68-1.04,6.744,6.744,0,0,0,1.16-2.76L93.36-15a4.846,4.846,0,0,0-3.1,1.26A8.488,8.488,0,0,0,88-10.52a10.838,10.838,0,0,0-.84,4.24,2.834,2.834,0,0,0,.5,1.84A1.7,1.7,0,0,0,89.04-3.84ZM104.32.2a2.186,2.186,0,0,1-2.14-1.6,15.331,15.331,0,0,1-.62-5.12,32.575,32.575,0,0,1,1.48-9.88,3.009,3.009,0,0,1,1.18-1.7,4.162,4.162,0,0,1,2.3-.54,2.254,2.254,0,0,1,1.12.2.826.826,0,0,1,.32.76,15.248,15.248,0,0,1-.6,2.88q-.4,1.6-.64,2.8a28.693,28.693,0,0,0-.4,2.96,22.743,22.743,0,0,1,2.96-5.6,11.607,11.607,0,0,1,3.22-3.08,5.855,5.855,0,0,1,2.9-.92,2.3,2.3,0,0,1,2.6,2.6,32.147,32.147,0,0,1-.88,5.64,27.76,27.76,0,0,0-.76,4.6q0,1.6,1.16,1.6a3.125,3.125,0,0,0,1.9-.98,32.1,32.1,0,0,0,2.94-3.18,1.4,1.4,0,0,1,1.08-.56.924.924,0,0,1,.82.48,2.481,2.481,0,0,1,.3,1.32,3.678,3.678,0,0,1-.76,2.48,17.7,17.7,0,0,1-3.7,3.48A7.759,7.759,0,0,1,115.6.2a3.889,3.889,0,0,1-3.08-1.18,5.019,5.019,0,0,1-1.04-3.42,24.973,24.973,0,0,1,.56-4,20.7,20.7,0,0,0,.52-3.48q0-.64-.44-.64-.52,0-1.46,1.34a21.479,21.479,0,0,0-1.92,3.54A27.536,27.536,0,0,0,107.16-3a6.238,6.238,0,0,1-1.02,2.54A2.3,2.3,0,0,1,104.32.2Zm39.72-9.12a.924.924,0,0,1,.82.48,2.481,2.481,0,0,1,.3,1.32,3.678,3.678,0,0,1-.76,2.48,19.31,19.31,0,0,1-3.6,3.42A6.607,6.607,0,0,1,136.92.2q-3.04,0-4.64-3.56a11.493,11.493,0,0,1-2.94,2.84A5.823,5.823,0,0,1,126.4.2a5.089,5.089,0,0,1-4.02-1.82,6.971,6.971,0,0,1-1.58-4.74,13.175,13.175,0,0,1,1.36-5.94,12.137,12.137,0,0,1,3.74-4.48,10.872,10.872,0,0,1,5.34-2.06,50.292,50.292,0,0,1,2.9-13.26q2.14-5.5,5.62-5.5a3.424,3.424,0,0,1,2.86,1.56,8,8,0,0,1,1.14,4.72,31.126,31.126,0,0,1-2.2,10.48,77.851,77.851,0,0,1-5.88,12.32,8.736,8.736,0,0,0,.7,3.32,1.584,1.584,0,0,0,1.38,1,3.419,3.419,0,0,0,2.2-.96,29.187,29.187,0,0,0,3-3.2A1.4,1.4,0,0,1,144.04-8.92Zm-4.72-24.76q-.76,0-1.52,2.7a49.294,49.294,0,0,0-1.3,7.06q-.54,4.36-.78,9.12,4.48-9.76,4.48-15.68a8.353,8.353,0,0,0-.26-2.36Q139.68-33.68,139.32-33.68ZM127.8-3.84a2.408,2.408,0,0,0,1.52-.62,11.723,11.723,0,0,0,1.92-2.3,26.7,26.7,0,0,1-.4-4.84q0-.96.08-3.12a6.7,6.7,0,0,0-3.66,2.94,9.057,9.057,0,0,0-1.46,5.02Q125.8-3.84,127.8-3.84Zm31.96-5.08a.924.924,0,0,1,.82.48,2.481,2.481,0,0,1,.3,1.32,3.678,3.678,0,0,1-.76,2.48,14.613,14.613,0,0,1-4.18,3.32A11.6,11.6,0,0,1,150.16.2a8.906,8.906,0,0,1-6.52-2.28,8.35,8.35,0,0,1-2.32-6.24,11.575,11.575,0,0,1,1.16-5.14,9.5,9.5,0,0,1,3.22-3.78,8.1,8.1,0,0,1,4.66-1.4,5.069,5.069,0,0,1,3.72,1.38,5.013,5.013,0,0,1,1.4,3.74,6.467,6.467,0,0,1-1.98,4.74q-1.98,1.98-6.7,3.14,1,1.84,3.8,1.84a8.748,8.748,0,0,0,4.1-1.26,13.541,13.541,0,0,0,3.98-3.3A1.4,1.4,0,0,1,159.76-8.92Zm-10.08-5.8a2.931,2.931,0,0,0-2.5,1.72,8.017,8.017,0,0,0-1.02,4.16v.08a9.09,9.09,0,0,0,3.72-1.68,3.3,3.3,0,0,0,1.36-2.6,1.739,1.739,0,0,0-.42-1.22A1.467,1.467,0,0,0,149.68-14.72Zm24.12,1.56a2.043,2.043,0,0,1,1.5.62,2.091,2.091,0,0,1,.62,1.54,3.029,3.029,0,0,1-.24,1.12,6.768,6.768,0,0,1-1.8,2.48,3.832,3.832,0,0,1-2.56,1,2.553,2.553,0,0,1-1.9-.8,2.961,2.961,0,0,1-.78-2.16q0-.76.08-1.64a8.518,8.518,0,0,0,.08-.88.711.711,0,0,0-.14-.48.436.436,0,0,0-.34-.16q-.56,0-1.52,1.34a19.655,19.655,0,0,0-1.92,3.54A28.732,28.732,0,0,0,163.32-3a6.333,6.333,0,0,1-1,2.56,2.332,2.332,0,0,1-1.84.64,2.186,2.186,0,0,1-2.14-1.6,15.332,15.332,0,0,1-.62-5.12,32.575,32.575,0,0,1,1.48-9.88,3.009,3.009,0,0,1,1.18-1.7,4.162,4.162,0,0,1,2.3-.54,2.254,2.254,0,0,1,1.12.2.826.826,0,0,1,.32.76,15.249,15.249,0,0,1-.6,2.88q-.4,1.6-.64,2.8a28.7,28.7,0,0,0-.4,2.96,22.743,22.743,0,0,1,2.96-5.6,11.752,11.752,0,0,1,3.2-3.08,5.7,5.7,0,0,1,2.84-.92,2.324,2.324,0,0,1,1.78.66,2.735,2.735,0,0,1,.62,1.94,17.436,17.436,0,0,1-.44,2.88Z" transform="translate(12 133)"/>
    <path id="Path_1" data-name="Path 1" class="cls-1" d="M11.688-.639,2.108-4.9V-5.927l9.579-4.258v1.494L4.134-5.412l7.554,3.279Zm9.363-12.277L15.1,2.523H13.663L19.59-12.916ZM33.436-4.9,23.856-.639V-2.133L31.41-5.412,23.856-8.691v-1.494l9.579,4.258Z" transform="translate(83 101)"/>
  </g>
</svg>
