<?xml version="1.0" encoding="UTF-8"?>
<svg width="174px" height="46px" viewBox="0 0 174 46" version="1.1" xmlns="http://www.w3.org/2000/svg" xmlns:xlink="http://www.w3.org/1999/xlink">
    <!-- Generator: Sketch 52.6 (67491) - http://www.bohemiancoding.com/sketch -->
    <title>logo-white</title>
    <desc>Created with Sketch.</desc>
    <g id="Page-1" stroke="none" stroke-width="1" fill="none" fill-rule="evenodd">
        <g id="Desktop-HD-Copy-2" transform="translate(-250.000000, -1451.000000)" fill="#2C50C7" fill-rule="nonzero">
            <g id="logo-white" transform="translate(249.000000, 1451.000000)">
                <path d="M10.76,45.116 C9.00521688,45.1393717 7.27932805,44.6680446 5.78,43.756 C4.26008814,42.80495 3.04527267,41.4374148 2.28,39.816 C1.38617077,37.9094049 0.947963171,35.8210719 1,33.716 C0.965804031,29.8100647 1.85676548,25.9515162 3.6,22.456 C5.32337285,19.0133578 7.98600623,16.1288383 11.28,14.136 C14.970067,11.9619146 19.1988505,10.8735228 23.48,10.996 C24.7980693,11.0023876 26.1142739,11.095925 27.42,11.276 C28.7161612,11.4396399 29.9947584,11.7207974 31.24,12.116 C31.9619264,12.292738 32.4410398,12.9771857 32.36,13.716 C32.3473073,14.4425096 32.0699635,15.1394247 31.58,15.676 C31.1469737,16.2460883 30.4758206,16.5853525 29.76,16.596 C29.5990027,16.6008412 29.4379753,16.5874222 29.28,16.556 C27.8933333,16.236 26.7066667,16.0026667 25.72,15.856 C24.6868279,15.7060161 23.6439959,15.6324831 22.6,15.636 C19.5348819,15.5426129 16.5162346,16.4020889 13.96,18.096 C11.6052035,19.7132993 9.75985786,21.967951 8.64,24.596 C7.45446104,27.3490043 6.85507653,30.3186821 6.88,33.316 C6.76738516,35.1661542 7.23589694,37.0052378 8.22,38.576 C8.99311819,39.7523167 10.3124745,40.4534604 11.72,40.436 C13.37014,40.4257335 14.9334752,39.6952031 16,38.436 C17.5392363,36.5205803 18.6814656,34.3177095 19.36,31.956 C20.6236048,27.9722843 21.6257367,23.9103098 22.36,19.796 C22.4394955,19.1723052 22.7909816,18.6157856 23.32,18.276 C23.916238,17.9834995 24.5765603,17.8459324 25.24,17.876 C27.1333333,17.876 28.08,18.4893333 28.08,19.716 C28.0718087,19.9864767 28.0315267,20.2550237 27.96,20.516 C27.2666667,23.1026667 26.6333333,25.9626667 26.06,29.096 C25.575431,31.4479683 25.2877683,33.8362378 25.2,36.236 C25.1201339,37.3216304 25.3416067,38.4082314 25.84,39.376 C26.2696023,40.0313189 27.0179835,40.4055095 27.8,40.356 C28.6856796,40.3449137 29.5431045,40.0427065 30.24,39.496 C31.3157084,38.6232845 32.2946475,37.6376404 33.16,36.556 C33.4158466,36.2145003 33.8134702,36.0083251 34.24,35.996 C34.5809619,35.9924429 34.8961708,36.1769554 35.06,36.476 C35.2804218,36.8796859 35.3842882,37.3366982 35.36,37.796 C35.4075385,38.6864842 35.1383014,39.5650473 34.6,40.276 C33.5016651,41.6561569 32.2080742,42.8688983 30.76,43.876 C29.3838593,44.7370392 27.7824587,45.1687211 26.16,45.116 C24.4989506,45.1912138 22.8751074,44.609217 21.64,43.496 C20.4176153,42.2611365 19.6552766,40.6446962 19.48,38.916 C17.5066667,43.0493333 14.6,45.116 10.76,45.116 Z M47.28,35.996 C47.6209619,35.9924429 47.9361708,36.1769554 48.1,36.476 C48.3204218,36.8796859 48.4242882,37.3366982 48.4,37.796 C48.4562403,38.68753 48.186095,39.5690567 47.64,40.276 C46.5731493,41.6153675 45.3126356,42.7882519 43.9,43.756 C42.5471694,44.6645617 40.9494496,45.1389938 39.32,45.116 C37.09607,45.1913397 35.0418525,43.9320493 34.1,41.916 C32.8691367,39.3350749 32.2856431,36.4931176 32.4,33.636 C32.4533965,29.8969236 32.8754393,26.1722286 33.66,22.516 C34.3525215,18.7755742 35.6067009,15.1613799 37.38,11.796 C39.02,8.80933333 40.9733333,7.316 43.24,7.316 C44.4989465,7.30307695 45.6615436,7.98831629 46.26,9.096 C47.0828087,10.6646336 47.4630707,12.4276669 47.36,14.196 C47.2124031,18.0135052 46.3153775,21.7647032 44.72,25.236 C42.8300404,29.6494053 40.4268173,33.8248376 37.56,37.676 C37.6455596,38.5257825 37.9639052,39.3354877 38.48,40.016 C38.9102866,40.4843584 39.524455,40.7402619 40.16,40.716 C41.1981903,40.7341056 42.2123917,40.4030816 43.04,39.776 C44.2011496,38.8140683 45.2600763,37.7350353 46.2,36.556 C46.4558466,36.2145003 46.8534702,36.0083251 47.28,35.996 Z M42.36,11.276 C41.7466667,11.276 41.0533333,12.3826667 40.28,14.596 C39.3870402,17.2855201 38.7049764,20.0405228 38.24,22.836 C37.669832,25.9521818 37.3488166,29.1088333 37.28,32.276 C39.0993879,29.3099008 40.6137777,26.1672067 41.8,22.896 C42.8456874,20.1528737 43.4138994,17.2509335 43.48,14.316 C43.48,12.2893333 43.1066667,11.276 42.36,11.276 Z M63,35.996 C63.3409619,35.9924429 63.6561708,36.1769554 63.82,36.476 C64.0404218,36.8796859 64.1442882,37.3366982 64.12,37.796 C64.1762403,38.68753 63.906095,39.5690567 63.36,40.276 C62.1823293,41.6299271 60.7653592,42.7553675 59.18,43.596 C57.4191667,44.5988152 55.4263576,45.1228757 53.4,45.116 C51.0084454,45.2640382 48.6581276,44.4421479 46.88,42.836 C45.2750761,41.1675501 44.4348666,38.9076764 44.56,36.596 C44.5463591,34.8162707 44.9433102,33.0573667 45.72,31.456 C46.4392332,29.9328112 47.5505296,28.628246 48.94,27.676 C50.3131469,26.7427839 51.9398966,26.2540608 53.6,26.276 C54.9759992,26.2114318 56.3190192,26.7096489 57.32,27.656 C58.2845152,28.6549605 58.7914645,30.0092396 58.72,31.396 C58.7427418,33.1816048 58.0261268,34.8971378 56.74,36.136 C55.42,37.456 53.1866667,38.5026667 50.04,39.276 C50.7066667,40.5026667 51.9733333,41.116 53.84,41.116 C55.2900515,41.0427451 56.69907,40.6097297 57.94,39.856 C59.4663003,39.0218301 60.8175933,37.9014113 61.92,36.556 C62.1758466,36.2145003 62.5734702,36.0083251 63,35.996 Z M52.92,30.196 C51.8316312,30.2597541 50.868586,30.9223291 50.42,31.916 C49.7090114,33.1844979 49.356427,34.6224894 49.4,36.076 L49.4,36.156 C50.7513231,35.8852449 52.0233902,35.3107631 53.12,34.476 C53.9548923,33.8696232 54.4580894,32.9076288 54.48,31.876 C54.5016275,31.430521 54.3512676,30.9937611 54.06,30.656 C53.7656673,30.3431679 53.3490183,30.1750463 52.92,30.196 Z M83.96,35.996 C84.3009619,35.9924429 84.6161708,36.1769554 84.78,36.476 C85.0004218,36.8796859 85.1042882,37.3366982 85.08,37.796 C85.1362403,38.68753 84.866095,39.5690567 84.32,40.276 C83.20658,41.6091141 81.9064993,42.7744715 80.46,43.736 C79.0528542,44.6581407 77.4022269,45.1387031 75.72,45.116 C74.4713734,45.139821 73.2336225,44.8799617 72.1,44.356 C71.0830665,43.8808689 70.2177072,43.1331985 69.6,42.196 C68.3658402,43.966237 66.3576353,45.0372796 64.2,45.076 C62.9136026,45.144274 61.6555663,44.681548 60.72,43.796 C59.8449107,42.886292 59.3821,41.656951 59.44,40.396 C59.3862171,39.2446956 59.7091991,38.1072374 60.36,37.156 C60.9642382,36.3332362 61.9403372,35.8677121 62.96,35.916 C63.92,35.916 64.4,36.276 64.4,36.996 C64.4,37.1826667 64.3733333,37.516 64.32,37.996 C64.24,38.956 64.2,39.5026667 64.2,39.636 C64.2,40.436 64.5466667,40.836 65.24,40.836 C65.8411126,40.782269 66.3819297,40.4488886 66.7,39.936 C67.2349319,39.194475 67.6282039,38.3604671 67.86,37.476 C68.1774165,36.3573074 68.3323349,35.1987873 68.32,34.036 C68.3415697,33.2145406 68.2197454,32.3956108 67.96,31.616 C67.72,30.9626667 67.4266667,30.636 67.08,30.636 C66.8450528,30.6146929 66.6121896,30.6947396 66.44,30.856 C66.2647983,31.0776276 66.1294508,31.3280206 66.04,31.596 C65.9069598,31.9802217 65.6880814,32.3290591 65.4,32.616 C64.9963569,32.9113835 64.4975966,33.0467612 64,32.996 C63.4623895,33.0178726 62.9451152,32.788794 62.6,32.376 C62.2112107,31.8223043 62.0273513,31.1505103 62.08,30.476 C62.0146465,29.2807613 62.4663331,28.1151183 63.32,27.276 C64.1936498,26.4852787 65.3425982,26.0687849 66.52,26.116 C67.5897378,26.1023742 68.6422207,26.3862676 69.56,26.936 C70.4803078,27.4980748 71.2062391,28.3287077 71.64,29.316 C72.3521412,28.3268055 73.2741351,27.5072554 74.34,26.916 C75.2385524,26.4097942 76.2488434,26.1348851 77.28,26.116 C78.1347181,26.0566053 78.9815337,26.3127848 79.66,26.836 C80.2594921,27.4521833 80.5591362,28.2999567 80.48,29.156 C80.5345905,30.1423275 80.2981278,31.1229521 79.8,31.976 C79.4710094,32.5809958 78.8481086,32.9684096 78.16,32.996 C77.7273966,33.0474643 77.2928353,32.9170959 76.96,32.636 C76.7170591,32.3339886 76.552208,31.9768112 76.48,31.596 C76.4496967,31.3421984 76.3680383,31.0972233 76.24,30.876 C76.1078511,30.7039558 75.8957209,30.6130428 75.68,30.636 C75.36,30.636 75.02,30.936 74.66,31.536 C74.2424474,32.2818917 73.9327014,33.0831911 73.74,33.916 C73.4841953,34.9225791 73.3565188,35.9574311 73.36,36.996 C73.2920906,38.0405796 73.6126229,39.0734059 74.26,39.896 C74.8857579,40.5874041 75.7885927,40.9617502 76.72,40.916 C77.7916095,40.9049553 78.8278943,40.5313288 79.66,39.856 C80.8501139,38.8763353 81.9298311,37.7697929 82.88,36.556 C83.1358466,36.2145003 83.5334702,36.0083251 83.96,35.996 Z M86.36,45.116 C84.8303317,45.1723918 83.3633223,44.5055694 82.4,43.316 C81.3642589,41.967067 80.839908,40.2948129 80.92,38.596 C80.9141855,36.4858201 81.4221423,34.4059431 82.4,32.536 C83.3208989,30.7058648 84.673092,29.1271622 86.34,27.936 C87.8520793,26.8183209 89.6797291,26.2091043 91.56,26.196 C91.9832936,26.1430051 92.4098023,26.2658975 92.74,26.536 C92.998989,26.8984073 93.1701629,27.3160714 93.24,27.756 C93.8203337,27.6474671 94.4096084,27.5938967 95,27.596 C96.3066667,27.596 96.96,28.0626667 96.96,28.996 C96.8501802,30.3413091 96.649725,31.6776767 96.36,32.996 C95.8759095,35.1000408 95.5681759,37.2407965 95.44,39.396 C95.4223484,39.7415326 95.5287447,40.0820008 95.74,40.356 C95.9294994,40.5912426 96.2180426,40.7244164 96.52,40.716 C97.2296703,40.616417 97.8813464,40.2693286 98.36,39.736 C99.3993014,38.7385223 100.374575,37.6764087 101.28,36.556 C101.535847,36.2145003 101.93347,36.0083251 102.36,35.996 C102.700962,35.9924429 103.016171,36.1769554 103.18,36.476 C103.400422,36.8796859 103.504288,37.3366982 103.48,37.796 C103.53624,38.68753 103.266095,39.5690567 102.72,40.276 C101.704054,41.5597801 100.535439,42.7149623 99.24,43.716 C98.2404519,44.5629202 96.9886909,45.0551858 95.68,45.116 C94.792009,45.1131338 93.9340734,44.7940668 93.26,44.216 C92.4911316,43.5641145 91.9167736,42.7129576 91.6,41.756 C90.2133333,43.996 88.4666667,45.116 86.36,45.116 Z M87.8,41.076 C88.4929326,41.0144471 89.1159254,40.628785 89.48,40.036 C90.0685697,39.2145301 90.4650037,38.2712906 90.64,37.276 L92.12,29.916 C90.9698361,29.9545881 89.8709435,30.4012348 89.02,31.176 C88.0248992,32.0575394 87.2507761,33.1604935 86.76,34.396 C86.1981489,35.7385957 85.9124684,37.1806021 85.92,38.636 C85.8691448,39.2886737 86.0458165,39.9388259 86.42,40.476 C86.7616169,40.879785 87.2717095,41.1015644 87.8,41.076 Z M103.08,45.116 C102.085796,45.1314358 101.206428,44.473964 100.94,43.516 C100.445692,41.8565895 100.23606,40.1254328 100.32,38.396 C100.302388,35.0461586 100.801591,31.7136439 101.8,28.516 C101.979976,27.8276466 102.39805,27.2253367 102.98,26.816 C103.678411,26.4176132 104.477268,26.2300556 105.28,26.276 C105.664293,26.2457989 106.049911,26.3146591 106.4,26.476 C106.634537,26.6541625 106.756462,26.9437328 106.72,27.236 C106.613292,28.2130945 106.412357,29.1775822 106.12,30.116 C105.853333,31.1826667 105.64,32.116 105.48,32.916 C105.295367,33.8950529 105.161853,34.8830579 105.08,35.876 C105.800621,33.8804007 106.796948,31.9954571 108.04,30.276 C108.904345,29.051011 109.997824,28.0050745 111.26,27.196 C112.12871,26.6391487 113.129153,26.3217666 114.16,26.276 C114.875895,26.1745345 115.597831,26.4156221 116.109105,26.9268954 C116.620378,27.4381687 116.861466,28.1601051 116.76,28.876 C116.63449,30.7783752 116.339996,32.6658141 115.88,34.516 C115.498124,36.0253089 115.243894,37.5640679 115.12,39.116 C115.12,40.1826667 115.506667,40.716 116.28,40.716 C117.008851,40.6228644 117.681575,40.2758803 118.18,39.736 C119.23047,38.7433931 120.212705,37.6809758 121.12,36.556 C121.375847,36.2145003 121.77347,36.0083251 122.2,35.996 C122.540962,35.9924429 122.856171,36.1769554 123.02,36.476 C123.240422,36.8796859 123.344288,37.3366982 123.32,37.796 C123.37624,38.68753 123.106095,39.5690567 122.56,40.276 C121.50039,41.6078537 120.254229,42.7799195 118.86,43.756 C117.536728,44.6637691 115.964546,45.1389172 114.36,45.116 C113.209118,45.1990658 112.080773,44.7667781 111.28,43.936 C110.525358,42.9622683 110.155195,41.7450019 110.24,40.516 C110.31836,39.1697336 110.505639,37.8320263 110.8,36.516 C111.071788,35.3728609 111.245749,34.2086561 111.32,33.036 C111.32,32.6093333 111.173333,32.396 110.88,32.396 C110.533333,32.396 110.046667,32.8426667 109.42,33.736 C108.670547,34.8532659 108.027723,36.0384739 107.5,37.276 C106.836447,38.7726227 106.307686,40.3254399 105.92,41.916 C105.772237,42.8277392 105.423851,43.6952881 104.9,44.456 C104.419977,44.9330445 103.754221,45.1744724 103.08,45.116 Z M142.8,35.996 C143.140962,35.9924429 143.456171,36.1769554 143.62,36.476 C143.840422,36.8796859 143.944288,37.3366982 143.92,37.796 C143.97624,38.68753 143.706095,39.5690567 143.16,40.276 C142.112186,41.5661808 140.902184,42.7156823 139.56,43.696 C138.451729,44.5719531 137.091881,45.0696295 135.68,45.116 C133.653333,45.116 132.106667,43.9293333 131.04,41.556 C130.237575,42.6707386 129.241829,43.6326159 128.1,44.396 C127.200602,44.8909663 126.186334,45.1393584 125.16,45.116 C123.612985,45.1520758 122.133599,44.4823042 121.14,43.296 C120.045749,41.9654998 119.4829,40.2769505 119.56,38.556 C119.542918,36.4969273 120.008709,34.4625159 120.92,32.616 C121.783743,30.84071 123.067519,29.3029242 124.66,28.136 C126.224058,26.984708 128.067958,26.273391 130,26.076 C130.363023,21.5452607 131.338573,17.0846449 132.9,12.816 C134.326667,9.14933333 136.2,7.316 138.52,7.316 C139.675488,7.32010701 140.750964,7.90673014 141.38,8.876 C142.239833,10.2932273 142.638188,11.9425557 142.52,13.596 C142.3976,17.1901952 141.653253,20.7359915 140.32,24.076 C138.72453,28.3469198 136.756968,32.4694314 134.44,36.396 C134.454115,37.5377793 134.691933,38.6657164 135.14,39.716 C135.366212,40.2894742 135.904597,40.6796085 136.52,40.716 C137.345254,40.6723969 138.126787,40.3313644 138.72,39.756 C139.798849,38.7660917 140.801681,37.6964051 141.72,36.556 C141.975847,36.2145003 142.37347,36.0083251 142.8,35.996 Z M138.08,11.236 C137.573333,11.236 137.066667,12.136 136.56,13.936 C135.955657,16.2546105 135.521172,18.6141992 135.26,20.996 C134.9,23.9026667 134.64,26.9426667 134.48,30.116 C137.466667,23.6093333 138.96,18.3826667 138.96,14.436 C138.986148,13.6409663 138.898597,12.8462737 138.7,12.076 C138.526667,11.516 138.32,11.236 138.08,11.236 Z M126.56,41.076 C127.123646,41.0537462 127.661592,40.834321 128.08,40.456 C128.815738,39.7746084 129.461007,39.0016306 130,38.156 C129.719913,36.5581678 129.586026,34.9381347 129.6,33.316 C129.6,32.676 129.626667,31.636 129.68,30.196 C128.145354,30.7025223 126.845502,31.7466658 126.02,33.136 C125.050462,34.629441 124.542635,36.3755316 124.56,38.156 C124.56,40.1026667 125.226667,41.076 126.56,41.076 Z M158.52,35.996 C158.860962,35.9924429 159.176171,36.1769554 159.34,36.476 C159.560422,36.8796859 159.664288,37.3366982 159.64,37.796 C159.69624,38.68753 159.426095,39.5690567 158.88,40.276 C157.702329,41.6299271 156.285359,42.7553675 154.7,43.596 C152.939167,44.5988152 150.946358,45.1228757 148.92,45.116 C146.528445,45.2640382 144.178128,44.4421479 142.4,42.836 C140.795076,41.1675501 139.954867,38.9076764 140.08,36.596 C140.066359,34.8162707 140.46331,33.0573667 141.24,31.456 C141.959233,29.9328112 143.07053,28.628246 144.46,27.676 C145.833147,26.7427839 147.459897,26.2540608 149.12,26.276 C150.495999,26.2114318 151.839019,26.7096489 152.84,27.656 C153.804515,28.6549605 154.311465,30.0092396 154.24,31.396 C154.262742,33.1816048 153.546127,34.8971378 152.26,36.136 C150.94,37.456 148.706667,38.5026667 145.56,39.276 C146.226667,40.5026667 147.493333,41.116 149.36,41.116 C150.810052,41.0427451 152.21907,40.6097297 153.46,39.856 C154.9863,39.0218301 156.337593,37.9014113 157.44,36.556 C157.695847,36.2145003 158.09347,36.0083251 158.52,35.996 Z M148.44,30.196 C147.351631,30.2597541 146.388586,30.9223291 145.94,31.916 C145.229011,33.1844979 144.876427,34.6224894 144.92,36.076 L144.92,36.156 C146.271323,35.8852449 147.54339,35.3107631 148.64,34.476 C149.474892,33.8696232 149.978089,32.9076288 150,31.876 C150.021628,31.430521 149.871268,30.9937611 149.58,30.656 C149.285667,30.3431679 148.869018,30.1750463 148.44,30.196 Z M172.56,31.756 C173.124164,31.7466626 173.667069,31.9710636 174.06,32.376 C174.47032,32.7817851 174.694695,33.3391049 174.68,33.916 C174.671959,34.3011994 174.590503,34.6813281 174.44,35.036 C174.037499,35.9894131 173.421717,36.8378244 172.64,37.516 C171.93967,38.1544068 171.027627,38.5106735 170.08,38.516 C169.36237,38.5282661 168.672723,38.2378885 168.18,37.716 C167.640006,37.1302509 167.358831,36.3516136 167.4,35.556 C167.4,35.0493333 167.426667,34.5026667 167.48,33.916 C167.521874,33.6242483 167.548576,33.3305199 167.56,33.036 C167.572987,32.864327 167.523242,32.693773 167.42,32.556 C167.336644,32.4540592 167.21168,32.3952528 167.08,32.396 C166.706667,32.396 166.2,32.8426667 165.56,33.736 C164.800483,34.8471491 164.157107,36.033374 163.64,37.276 C162.98895,38.7754722 162.467056,40.3277713 162.08,41.916 C161.938082,42.8322467 161.596711,43.7061566 161.08,44.476 C160.589419,44.9475718 159.917334,45.1813404 159.24,45.116 C158.245796,45.1314358 157.366428,44.473964 157.1,43.516 C156.605711,41.8565855 156.396079,40.1254321 156.48,38.396 C156.462388,35.0461586 156.961591,31.7136439 157.96,28.516 C158.139976,27.8276466 158.55805,27.2253367 159.14,26.816 C159.838411,26.4176132 160.637268,26.2300556 161.44,26.276 C161.824293,26.2457989 162.209911,26.3146591 162.56,26.476 C162.794537,26.6541625 162.916462,26.9437328 162.88,27.236 C162.773285,28.2130935 162.572351,29.1775806 162.28,30.116 C162.013333,31.1826667 161.8,32.116 161.64,32.916 C161.455379,33.8950549 161.321865,34.8830592 161.24,35.876 C161.960621,33.8804007 162.956948,31.9954571 164.2,30.276 C165.061203,29.0552705 166.147261,28.009939 167.4,27.196 C168.248123,26.642475 169.228412,26.3249167 170.24,26.276 C170.900234,26.2325795 171.547673,26.4726415 172.02,26.936 C172.468714,27.4787333 172.690795,28.1736298 172.64,28.876 C172.573935,29.8465938 172.426754,30.8099559 172.2,31.756 L172.56,31.756 Z" id="Name"></path>
                <path d="M81.448,12.277 L71.868,8.016 L71.868,6.989 L81.447,2.731 L81.447,4.225 L73.894,7.504 L81.448,10.783 L81.448,12.277 Z M90.811,0 L84.86,15.439 L83.423,15.439 L89.35,0 L90.811,0 Z M103.196,8.016 L93.616,12.277 L93.616,10.783 L101.17,7.504 L93.616,4.225 L93.616,2.731 L103.195,6.989 L103.196,8.016 Z" id="Path_1"></path>
            </g>
        </g>
    </g>
</svg>